<mxfile host="app.diagrams.net" modified="2021-06-03T07:52:43.246Z" agent="5.0 (Windows NT 10.0; Win64; x64) AppleWebKit/537.36 (KHTML, like Gecko) Chrome/90.0.4430.93 Safari/537.36" etag="qOj3FqtsWho-by5GYt_V" version="14.7.3" type="github">
  <diagram id="C5RBs43oDa-KdzZeNtuy" name="Page-1">
    <mxGraphModel dx="1038" dy="492" grid="1" gridSize="10" guides="1" tooltips="1" connect="1" arrows="1" fold="1" page="1" pageScale="1" pageWidth="827" pageHeight="1169" math="0" shadow="0">
      <root>
        <mxCell id="WIyWlLk6GJQsqaUBKTNV-0" />
        <mxCell id="WIyWlLk6GJQsqaUBKTNV-1" parent="WIyWlLk6GJQsqaUBKTNV-0" />
        <mxCell id="JzfdrpnBdzGUzc7GQl18-6" style="edgeStyle=orthogonalEdgeStyle;rounded=0;orthogonalLoop=1;jettySize=auto;html=1;exitX=0.5;exitY=1;exitDx=0;exitDy=0;exitPerimeter=0;entryX=0.5;entryY=0;entryDx=0;entryDy=0;" edge="1" parent="WIyWlLk6GJQsqaUBKTNV-1" source="JzfdrpnBdzGUzc7GQl18-0" target="JzfdrpnBdzGUzc7GQl18-1">
          <mxGeometry relative="1" as="geometry" />
        </mxCell>
        <mxCell id="JzfdrpnBdzGUzc7GQl18-0" value="&lt;font style=&quot;font-size: 14px&quot;&gt;开始&lt;/font&gt;" style="strokeWidth=2;html=1;shape=mxgraph.flowchart.terminator;whiteSpace=wrap;" vertex="1" parent="WIyWlLk6GJQsqaUBKTNV-1">
          <mxGeometry x="364" y="110" width="76" height="40" as="geometry" />
        </mxCell>
        <mxCell id="JzfdrpnBdzGUzc7GQl18-7" style="edgeStyle=orthogonalEdgeStyle;rounded=0;orthogonalLoop=1;jettySize=auto;html=1;exitX=0.5;exitY=1;exitDx=0;exitDy=0;entryX=0.5;entryY=0;entryDx=0;entryDy=0;" edge="1" parent="WIyWlLk6GJQsqaUBKTNV-1" source="JzfdrpnBdzGUzc7GQl18-1" target="JzfdrpnBdzGUzc7GQl18-2">
          <mxGeometry relative="1" as="geometry" />
        </mxCell>
        <mxCell id="JzfdrpnBdzGUzc7GQl18-1" value="&lt;font style=&quot;font-size: 14px&quot;&gt;NMEA信息接收&lt;/font&gt;" style="rounded=0;whiteSpace=wrap;html=1;" vertex="1" parent="WIyWlLk6GJQsqaUBKTNV-1">
          <mxGeometry x="348" y="180" width="108" height="40" as="geometry" />
        </mxCell>
        <mxCell id="JzfdrpnBdzGUzc7GQl18-8" style="edgeStyle=orthogonalEdgeStyle;rounded=0;orthogonalLoop=1;jettySize=auto;html=1;exitX=0.5;exitY=1;exitDx=0;exitDy=0;entryX=0.5;entryY=0;entryDx=0;entryDy=0;" edge="1" parent="WIyWlLk6GJQsqaUBKTNV-1" source="JzfdrpnBdzGUzc7GQl18-2" target="JzfdrpnBdzGUzc7GQl18-3">
          <mxGeometry relative="1" as="geometry" />
        </mxCell>
        <mxCell id="JzfdrpnBdzGUzc7GQl18-11" style="edgeStyle=orthogonalEdgeStyle;rounded=0;orthogonalLoop=1;jettySize=auto;html=1;exitX=1;exitY=0.5;exitDx=0;exitDy=0;" edge="1" parent="WIyWlLk6GJQsqaUBKTNV-1" source="JzfdrpnBdzGUzc7GQl18-2">
          <mxGeometry relative="1" as="geometry">
            <mxPoint x="402" y="480" as="targetPoint" />
            <Array as="points">
              <mxPoint x="497" y="290" />
              <mxPoint x="497" y="480" />
            </Array>
          </mxGeometry>
        </mxCell>
        <mxCell id="JzfdrpnBdzGUzc7GQl18-2" value="&lt;font style=&quot;font-size: 14px&quot;&gt;是否查找到报头&lt;/font&gt;" style="rhombus;whiteSpace=wrap;html=1;" vertex="1" parent="WIyWlLk6GJQsqaUBKTNV-1">
          <mxGeometry x="327" y="250" width="150" height="80" as="geometry" />
        </mxCell>
        <mxCell id="JzfdrpnBdzGUzc7GQl18-9" style="edgeStyle=orthogonalEdgeStyle;rounded=0;orthogonalLoop=1;jettySize=auto;html=1;exitX=0.5;exitY=1;exitDx=0;exitDy=0;entryX=0.5;entryY=0;entryDx=0;entryDy=0;" edge="1" parent="WIyWlLk6GJQsqaUBKTNV-1" source="JzfdrpnBdzGUzc7GQl18-3" target="JzfdrpnBdzGUzc7GQl18-4">
          <mxGeometry relative="1" as="geometry" />
        </mxCell>
        <mxCell id="JzfdrpnBdzGUzc7GQl18-3" value="&lt;font style=&quot;font-size: 14px&quot;&gt;信息提取&lt;/font&gt;" style="rounded=0;whiteSpace=wrap;html=1;" vertex="1" parent="WIyWlLk6GJQsqaUBKTNV-1">
          <mxGeometry x="348" y="360" width="108" height="40" as="geometry" />
        </mxCell>
        <mxCell id="JzfdrpnBdzGUzc7GQl18-10" style="edgeStyle=orthogonalEdgeStyle;rounded=0;orthogonalLoop=1;jettySize=auto;html=1;exitX=0.5;exitY=1;exitDx=0;exitDy=0;entryX=0.5;entryY=0;entryDx=0;entryDy=0;entryPerimeter=0;" edge="1" parent="WIyWlLk6GJQsqaUBKTNV-1" source="JzfdrpnBdzGUzc7GQl18-4" target="JzfdrpnBdzGUzc7GQl18-5">
          <mxGeometry relative="1" as="geometry" />
        </mxCell>
        <mxCell id="JzfdrpnBdzGUzc7GQl18-4" value="&lt;font style=&quot;font-size: 14px&quot;&gt;信息保存&lt;/font&gt;" style="rounded=0;whiteSpace=wrap;html=1;" vertex="1" parent="WIyWlLk6GJQsqaUBKTNV-1">
          <mxGeometry x="348" y="430" width="108" height="40" as="geometry" />
        </mxCell>
        <mxCell id="JzfdrpnBdzGUzc7GQl18-5" value="&lt;font style=&quot;font-size: 14px&quot;&gt;结束&lt;/font&gt;" style="strokeWidth=2;html=1;shape=mxgraph.flowchart.terminator;whiteSpace=wrap;" vertex="1" parent="WIyWlLk6GJQsqaUBKTNV-1">
          <mxGeometry x="364" y="500" width="76" height="40" as="geometry" />
        </mxCell>
        <mxCell id="JzfdrpnBdzGUzc7GQl18-12" value="&lt;font style=&quot;font-size: 14px&quot;&gt;否&lt;/font&gt;" style="text;html=1;align=center;verticalAlign=middle;resizable=0;points=[];autosize=1;strokeColor=none;" vertex="1" parent="WIyWlLk6GJQsqaUBKTNV-1">
          <mxGeometry x="465" y="260" width="30" height="20" as="geometry" />
        </mxCell>
        <mxCell id="JzfdrpnBdzGUzc7GQl18-13" value="&lt;font style=&quot;font-size: 14px&quot;&gt;是&lt;/font&gt;" style="text;html=1;align=center;verticalAlign=middle;resizable=0;points=[];autosize=1;strokeColor=none;" vertex="1" parent="WIyWlLk6GJQsqaUBKTNV-1">
          <mxGeometry x="405" y="330" width="30" height="20" as="geometry" />
        </mxCell>
      </root>
    </mxGraphModel>
  </diagram>
</mxfile>
